<svg width="38" height="38" viewBox="0 0 38 38" fill="none" xmlns="http://www.w3.org/2000/svg">
<rect width="38" height="38" rx="7" fill="#00AEEF"/>
<path d="M18 27C22.9706 27 27 22.9706 27 18C27 13.0294 22.9706 9 18 9C13.0294 9 9 13.0294 9 18C9 22.9706 13.0294 27 18 27Z" fill="white"/>
<path d="M27.3001 28.0001C27.1201 28.0001 26.9401 27.9301 26.8101 27.8001L24.9501 25.9401C24.6801 25.6701 24.6801 25.2301 24.9501 24.9501C25.2201 24.6801 25.6601 24.6801 25.9401 24.9501L27.8001 26.8101C28.0701 27.0801 28.0701 27.5201 27.8001 27.8001C27.6601 27.9301 27.4801 28.0001 27.3001 28.0001Z" fill="white"/>
</svg>
