<svg width="20" height="20" viewBox="0 0 20 20" fill="none" xmlns="http://www.w3.org/2000/svg">
<path d="M20 10.86C20 13.15 18.82 15.18 17 16.46L15.66 19.41C15.35 20.08 14.45 20.21 13.98 19.64L12.5 17.86C10.64 17.86 8.93 17.23 7.63 16.18L8.23 15.47C12.85 15.12 16.5 11.46 16.5 7.00002C16.5 6.24002 16.39 5.49002 16.19 4.77002C18.46 5.97002 20 8.25002 20 10.86Z" fill="#C1C1C1"/>
<path d="M14.3 4.07C13.13 1.67 10.52 0 7.5 0C3.36 0 0 3.13 0 7C0 9.29 1.18 11.32 3 12.6L4.34 15.55C4.65 16.22 5.55 16.34 6.02 15.78L6.57 15.12L7.5 14C11.64 14 15 10.87 15 7C15 5.95 14.75 4.96 14.3 4.07ZM10 7.75H5C4.59 7.75 4.25 7.41 4.25 7C4.25 6.59 4.59 6.25 5 6.25H10C10.41 6.25 10.75 6.59 10.75 7C10.75 7.41 10.41 7.75 10 7.75Z" fill="#C1C1C1"/>
</svg>
