<svg width="18" height="20" viewBox="0 0 18 20" fill="none" xmlns="http://www.w3.org/2000/svg">
<path d="M16.7498 12.01L15.6198 10.13C15.3698 9.72 15.1498 8.93 15.1498 8.45V6.58C15.1498 2.95 12.1998 0 8.57977 0C4.94977 0.01 1.99977 2.95 1.99977 6.58V8.44C1.99977 8.92 1.77977 9.71 1.53977 10.12L0.409773 12C-0.020227 12.73 -0.120227 13.56 0.149773 14.28C0.419773 15.01 1.02977 15.59 1.82977 15.85C2.90977 16.21 3.99977 16.47 5.10977 16.66C5.21977 16.68 5.32977 16.69 5.43977 16.71C5.57977 16.73 5.72977 16.75 5.87977 16.77C6.13977 16.81 6.39977 16.84 6.66977 16.86C7.29977 16.92 7.93977 16.95 8.57977 16.95C9.20977 16.95 9.83977 16.92 10.4598 16.86C10.6898 16.84 10.9198 16.82 11.1398 16.79C11.3198 16.77 11.4998 16.75 11.6798 16.72C11.7898 16.71 11.8998 16.69 12.0098 16.67C13.1298 16.49 14.2398 16.21 15.3198 15.85C16.0898 15.59 16.6798 15.01 16.9598 14.27C17.2398 13.52 17.1598 12.7 16.7498 12.01ZM9.30977 7.95C9.30977 8.37 8.96977 8.71 8.54977 8.71C8.12977 8.71 7.78977 8.37 7.78977 7.95V4.85C7.78977 4.43 8.12977 4.09 8.54977 4.09C8.96977 4.09 9.30977 4.43 9.30977 4.85V7.95Z" fill="#C1C1C1"/>
<path d="M11.3893 17.9602C10.9693 19.1202 9.85926 19.9502 8.55926 19.9502C7.76926 19.9502 6.98926 19.6302 6.43926 19.0602C6.11926 18.7602 5.87926 18.3602 5.73926 17.9502C5.86926 17.9702 5.99926 17.9802 6.13926 18.0002C6.36926 18.0302 6.60926 18.0602 6.84926 18.0802C7.41926 18.1302 7.99926 18.1602 8.57926 18.1602C9.14926 18.1602 9.71926 18.1302 10.2793 18.0802C10.4893 18.0602 10.6993 18.0502 10.8993 18.0202C11.0593 18.0002 11.2193 17.9802 11.3893 17.9602Z" fill="#C1C1C1"/>
</svg>
