<svg width="17" height="20" viewBox="0 0 17 20" fill="none" xmlns="http://www.w3.org/2000/svg">
<path fill-rule="evenodd" clip-rule="evenodd" d="M15.479 17.16C16.069 16.26 16.289 15.8 16.739 14.79C13.419 13.53 12.889 8.79999 16.169 6.98999C15.169 5.72999 13.759 5 12.429 5C11.469 5 10.809 5.25001 10.219 5.48001C9.71897 5.67001 9.26898 5.84 8.70897 5.84C8.10897 5.84 7.57897 5.65001 7.01897 5.45001C6.40897 5.23001 5.76897 5 4.96897 5C3.47897 5 1.88897 5.91 0.878973 7.47C-0.541027 9.67 -0.291025 13.79 1.99898 17.31C2.81898 18.57 3.91897 19.98 5.34897 20C5.94897 20.01 6.33897 19.83 6.76897 19.64C7.25897 19.42 7.78897 19.18 8.71897 19.18C9.64897 19.17 10.169 19.42 10.659 19.64C11.079 19.83 11.459 20.01 12.049 20C13.499 19.98 14.659 18.42 15.479 17.16Z" fill="black"/>
<path fill-rule="evenodd" clip-rule="evenodd" d="M12.2193 0C12.3793 1.1 11.9293 2.19001 11.3393 2.95001C10.7093 3.77001 9.60934 4.41 8.54934 4.37C8.35934 3.31 8.84934 2.21999 9.44934 1.48999C10.1193 0.68999 11.2493 0.07 12.2193 0Z" fill="black"/>
</svg>
