<svg width="19" height="18" viewBox="0 0 19 18" fill="none" xmlns="http://www.w3.org/2000/svg">
<path fill-rule="evenodd" clip-rule="evenodd" d="M9.32363 7.29153e-05C6.17938 -0.0125628 3.2597 1.61782 1.62567 4.2978C-0.00857657 6.97812 -0.118287 10.3171 1.33651 13.0986L1.5011 13.4195C1.56402 13.5374 1.57616 13.6646 1.5397 13.7822C1.30462 14.4034 1.09808 15.0743 0.933267 15.7559L0.91577 15.9027C0.91577 16.5881 1.28145 17.059 2.0072 17.0429L2.12805 17.0283C2.78732 16.8827 3.43659 16.6952 4.07187 16.4668C4.15608 16.4455 4.29401 16.4537 4.41848 16.5047L5.02961 16.8505C5.03098 16.8548 5.03201 16.858 5.03841 16.8617L5.07943 16.8761C8.37002 18.6063 12.3888 18.129 15.181 15.6762C17.9737 13.223 18.9598 9.30302 17.6593 5.82333C16.359 2.344 13.0426 0.0274047 9.32363 7.29153e-05ZM9.06384 1.25253L9.31533 1.24859C12.5161 1.27294 15.3704 3.26678 16.4893 6.26071C17.6081 9.25431 16.7598 12.6267 14.3568 14.7375L14.1596 14.905C11.8352 16.8134 8.60785 17.1981 5.89884 15.8901L5.64121 15.761L5.65225 15.7624L5.63595 15.758L5.25782 15.541C5.12166 15.464 5.01365 15.4058 4.9266 15.3638C4.51189 15.1929 4.09092 15.1676 3.69498 15.2767L3.32015 15.4054C3.07243 15.4872 2.82859 15.5612 2.58595 15.628L2.23222 15.7204L2.14795 16.0496C2.30073 15.4177 2.49221 14.7958 2.72129 14.1873C2.86871 13.7156 2.82363 13.2431 2.60817 12.8399L2.44617 12.5239C1.19231 10.1266 1.28669 7.2542 2.6927 4.9482C4.05496 2.71396 6.45599 1.32714 9.06384 1.25253ZM4.32413 8.9539C4.32413 8.38962 4.78191 7.93259 5.34609 7.93259C5.91028 7.93259 6.36805 8.38962 6.36805 8.9539C6.36805 9.51818 5.91028 9.97521 5.34609 9.97521C4.78191 9.97521 4.32413 9.51818 4.32413 8.9539ZM8.29656 8.9539C8.29656 8.38962 8.75433 7.9326 9.31851 7.9326C9.8827 7.9326 10.3405 8.38962 10.3405 8.9539C10.3405 9.51818 9.8827 9.97521 9.31851 9.97521C8.75433 9.97521 8.29656 9.51818 8.29656 8.9539ZM13.2915 7.9326C12.7273 7.9326 12.2695 8.38962 12.2695 8.9539C12.2695 9.51818 12.7273 9.97521 13.2915 9.97521C13.8557 9.97521 14.3134 9.51818 14.3134 8.9539C14.3134 8.38962 13.8557 7.9326 13.2915 7.9326Z" fill="#868686"/>
</svg>
