<svg width="18" height="17" viewBox="0 0 18 17" fill="none" xmlns="http://www.w3.org/2000/svg">
<path fill-rule="evenodd" clip-rule="evenodd" d="M3.88189 0.273008C0.702687 1.29657 -0.715346 4.76734 0.350531 8.07837C0.89141 9.63749 1.77105 11.0388 2.92675 12.1885C4.51218 13.7283 6.25395 15.0834 8.1263 16.2347L8.33893 16.362C8.54257 16.4839 8.79731 16.4818 8.99887 16.3565L9.19737 16.2331C11.0671 15.0834 12.8089 13.7283 14.3889 12.1939C15.55 11.0388 16.4297 9.63749 16.966 8.09191C18.0358 4.76935 16.6119 1.29693 13.4317 0.273059L13.2017 0.204551C11.7436 -0.196482 10.1941 0.00112663 8.88798 0.74064L8.65581 0.87827L8.42773 0.741408C7.05005 -0.040316 5.40352 -0.216446 3.88189 0.273008ZM8.11751 2.03853L8.28786 2.16071C8.51242 2.32154 8.81541 2.31834 9.03652 2.15281C10.1882 1.29065 11.6786 1.03976 13.044 1.47779C15.508 2.27108 16.6293 5.00567 15.7649 7.69083C15.296 9.04141 14.5199 10.2778 13.5008 11.2917L13.0436 11.726C11.8117 12.8708 10.4796 13.9071 9.06521 14.8203L8.66009 15.075L8.78372 15.153C6.99691 14.0542 5.32856 12.7562 3.81503 11.2863C2.80127 10.2778 2.02519 9.04141 1.55181 7.67729C0.691114 5.00312 1.80758 2.27045 4.27025 1.47759C5.57063 1.0593 6.98831 1.26668 8.11751 2.03853ZM12.0104 3.44951C11.6772 3.34317 11.3209 3.52683 11.2145 3.85972C11.108 4.19262 11.2918 4.54869 11.625 4.65503C12.2799 4.86404 12.7467 5.45344 12.8052 6.14868C12.8345 6.49692 13.1408 6.7555 13.4893 6.72622C13.8378 6.69695 14.0966 6.39091 14.0673 6.04267C13.9661 4.83913 13.1546 3.81472 12.0104 3.44951Z" fill="#868686"/>
</svg>
