<svg width="20" height="20" viewBox="0 0 20 20" fill="none" xmlns="http://www.w3.org/2000/svg">
<path d="M10.0001 15.3498C10.9003 15.3498 11.6301 14.6201 11.6301 13.7198C11.6301 12.8196 10.9003 12.0898 10.0001 12.0898C9.09989 12.0898 8.37012 12.8196 8.37012 13.7198C8.37012 14.6201 9.09989 15.3498 10.0001 15.3498Z" fill="#00AEEF"/>
<path d="M17.5014 7.79007C16.8227 7.56792 16.28 6.99411 16.28 6.28C16.28 3.58 15.63 0 10 0C4.37 0 3.72 3.58 3.72 6.28C3.72 6.99411 3.1773 7.56792 2.49863 7.79007C0.645018 8.39679 0 9.86775 0 12.79V14.65C0 18.75 1.25 20 5.35 20H14.65C18.75 20 20 18.75 20 14.65V12.79C20 9.86775 19.355 8.39679 17.5014 7.79007ZM10 16.74C8.33 16.74 6.98 15.38 6.98 13.72C6.98 12.05 8.34 10.7 10 10.7C11.66 10.7 13.02 12.06 13.02 13.72C13.02 15.39 11.67 16.74 10 16.74ZM5.35 7.445C5.35 7.44224 5.34775 7.44 5.34499 7.44C5.30686 7.44 5.27093 7.44 5.235 7.44C5.17149 7.44 5.12 7.38851 5.12 7.325V6.28C5.12 3.35 5.95 1.4 10 1.4C14.05 1.4 14.88 3.35 14.88 6.28V7.22C14.88 7.34703 14.777 7.45 14.65 7.45H5.355C5.35224 7.45 5.35 7.44776 5.35 7.445Z" fill="#00AEEF"/>
</svg>
